<mxfile host="app.diagrams.net" agent="Mozilla/5.0 (Windows NT 10.0; Win64; x64) AppleWebKit/537.36 (KHTML, like Gecko) Chrome/133.0.0.0 Safari/537.36" version="26.1.0">
  <diagram name="PÃ¡gina-1" id="eUYDOVo5_WxK-WEYkZAl">
    <mxGraphModel dx="2261" dy="818" grid="1" gridSize="10" guides="1" tooltips="1" connect="1" arrows="1" fold="1" page="1" pageScale="1" pageWidth="827" pageHeight="1169" math="0" shadow="0">
      <root>
        <mxCell id="0" />
        <mxCell id="1" parent="0" />
        <mxCell id="cIdRSMlZmeu0o8aqH7t7-1" value="&lt;span style=&quot;font-weight: 400;&quot;&gt;Cliente&lt;/span&gt;" style="swimlane;fontStyle=1;align=center;verticalAlign=top;childLayout=stackLayout;horizontal=1;startSize=26;horizontalStack=0;resizeParent=1;resizeParentMax=0;resizeLast=0;collapsible=1;marginBottom=0;whiteSpace=wrap;html=1;" vertex="1" parent="1">
          <mxGeometry x="-491" y="101" width="160" height="102" as="geometry" />
        </mxCell>
        <mxCell id="cIdRSMlZmeu0o8aqH7t7-2" value="&lt;span style=&quot;text-align: center;&quot; class=&quot;hljs-operator&quot;&gt;-&lt;/span&gt;&lt;span style=&quot;text-align: center;&quot;&gt;nombre: string&lt;/span&gt;&lt;div&gt;&lt;span style=&quot;text-align: center;&quot; class=&quot;hljs-operator&quot;&gt;-&lt;/span&gt;&lt;span style=&quot;text-align: center;&quot;&gt;ID:&amp;nbsp;&lt;/span&gt;&lt;span style=&quot;text-align: center;&quot; class=&quot;hljs-type&quot;&gt;int&lt;/span&gt;&lt;span style=&quot;text-align: center;&quot;&gt;&lt;/span&gt;&lt;/div&gt;" style="text;strokeColor=none;fillColor=none;align=left;verticalAlign=top;spacingLeft=4;spacingRight=4;overflow=hidden;rotatable=0;points=[[0,0.5],[1,0.5]];portConstraint=eastwest;whiteSpace=wrap;html=1;" vertex="1" parent="cIdRSMlZmeu0o8aqH7t7-1">
          <mxGeometry y="26" width="160" height="42" as="geometry" />
        </mxCell>
        <mxCell id="cIdRSMlZmeu0o8aqH7t7-3" value="" style="line;strokeWidth=1;fillColor=none;align=left;verticalAlign=middle;spacingTop=-1;spacingLeft=3;spacingRight=3;rotatable=0;labelPosition=right;points=[];portConstraint=eastwest;strokeColor=inherit;" vertex="1" parent="cIdRSMlZmeu0o8aqH7t7-1">
          <mxGeometry y="68" width="160" height="8" as="geometry" />
        </mxCell>
        <mxCell id="cIdRSMlZmeu0o8aqH7t7-4" value="&lt;span style=&quot;text-align: center;&quot; class=&quot;hljs-operator&quot;&gt;+&lt;/span&gt;&lt;span style=&quot;text-align: center;&quot;&gt;autenticar(): boo&lt;/span&gt;" style="text;strokeColor=none;fillColor=none;align=left;verticalAlign=top;spacingLeft=4;spacingRight=4;overflow=hidden;rotatable=0;points=[[0,0.5],[1,0.5]];portConstraint=eastwest;whiteSpace=wrap;html=1;" vertex="1" parent="cIdRSMlZmeu0o8aqH7t7-1">
          <mxGeometry y="76" width="160" height="26" as="geometry" />
        </mxCell>
        <mxCell id="cIdRSMlZmeu0o8aqH7t7-5" value="" style="html=1;verticalAlign=bottom;endArrow=block;curved=0;rounded=0;fontSize=12;startSize=8;endSize=8;exitX=0.425;exitY=1;exitDx=0;exitDy=0;exitPerimeter=0;" edge="1" parent="1" source="cIdRSMlZmeu0o8aqH7t7-4" target="cIdRSMlZmeu0o8aqH7t7-6">
          <mxGeometry width="80" relative="1" as="geometry">
            <mxPoint x="-427" y="612" as="sourcePoint" />
            <mxPoint x="-423" y="335" as="targetPoint" />
          </mxGeometry>
        </mxCell>
        <mxCell id="cIdRSMlZmeu0o8aqH7t7-6" value="&lt;span style=&quot;font-weight: 400;&quot;&gt;Cuenta&lt;/span&gt;" style="swimlane;fontStyle=1;align=center;verticalAlign=top;childLayout=stackLayout;horizontal=1;startSize=26;horizontalStack=0;resizeParent=1;resizeParentMax=0;resizeLast=0;collapsible=1;marginBottom=0;whiteSpace=wrap;html=1;" vertex="1" parent="1">
          <mxGeometry x="-503" y="290" width="160" height="112" as="geometry" />
        </mxCell>
        <mxCell id="cIdRSMlZmeu0o8aqH7t7-7" value="&lt;span style=&quot;text-align: center;&quot; class=&quot;hljs-operator&quot;&gt;-&lt;/span&gt;&lt;span style=&quot;text-align: center;&quot;&gt;saldo:&amp;nbsp;&lt;/span&gt;&lt;span style=&quot;text-align: center;&quot; class=&quot;hljs-type&quot;&gt;float&lt;/span&gt;&lt;div&gt;&lt;span style=&quot;text-align: center;&quot; class=&quot;hljs-type&quot;&gt;&amp;nbsp;&lt;span class=&quot;hljs-operator&quot;&gt;-&lt;/span&gt;titular: Cliente&amp;nbsp;&lt;/span&gt;&lt;/div&gt;" style="text;strokeColor=none;fillColor=none;align=left;verticalAlign=top;spacingLeft=4;spacingRight=4;overflow=hidden;rotatable=0;points=[[0,0.5],[1,0.5]];portConstraint=eastwest;whiteSpace=wrap;html=1;" vertex="1" parent="cIdRSMlZmeu0o8aqH7t7-6">
          <mxGeometry y="26" width="160" height="39" as="geometry" />
        </mxCell>
        <mxCell id="cIdRSMlZmeu0o8aqH7t7-8" value="" style="line;strokeWidth=1;fillColor=none;align=left;verticalAlign=middle;spacingTop=-1;spacingLeft=3;spacingRight=3;rotatable=0;labelPosition=right;points=[];portConstraint=eastwest;strokeColor=inherit;" vertex="1" parent="cIdRSMlZmeu0o8aqH7t7-6">
          <mxGeometry y="65" width="160" height="8" as="geometry" />
        </mxCell>
        <mxCell id="cIdRSMlZmeu0o8aqH7t7-9" value="&lt;span style=&quot;text-align: center;&quot; class=&quot;hljs-operator&quot;&gt;+&lt;/span&gt;&lt;span style=&quot;text-align: center;&quot;&gt;depositar(): void&lt;/span&gt;&lt;div&gt;&lt;span style=&quot;text-align: center;&quot; class=&quot;hljs-operator&quot;&gt;+&lt;/span&gt;&lt;span style=&quot;text-align: center;&quot;&gt;retirar(): boo&lt;/span&gt;&lt;/div&gt;" style="text;strokeColor=none;fillColor=none;align=left;verticalAlign=top;spacingLeft=4;spacingRight=4;overflow=hidden;rotatable=0;points=[[0,0.5],[1,0.5]];portConstraint=eastwest;whiteSpace=wrap;html=1;" vertex="1" parent="cIdRSMlZmeu0o8aqH7t7-6">
          <mxGeometry y="73" width="160" height="39" as="geometry" />
        </mxCell>
        <mxCell id="cIdRSMlZmeu0o8aqH7t7-10" value="" style="html=1;verticalAlign=bottom;endArrow=block;curved=0;rounded=0;fontSize=12;startSize=8;endSize=8;exitX=0.425;exitY=1;exitDx=0;exitDy=0;exitPerimeter=0;" edge="1" parent="1" target="cIdRSMlZmeu0o8aqH7t7-11">
          <mxGeometry width="80" relative="1" as="geometry">
            <mxPoint x="-431" y="402" as="sourcePoint" />
            <mxPoint x="-431" y="489" as="targetPoint" />
          </mxGeometry>
        </mxCell>
        <mxCell id="cIdRSMlZmeu0o8aqH7t7-11" value="&lt;span style=&quot;font-weight: 400;&quot;&gt;Tarjeta&lt;/span&gt;" style="swimlane;fontStyle=1;align=center;verticalAlign=top;childLayout=stackLayout;horizontal=1;startSize=26;horizontalStack=0;resizeParent=1;resizeParentMax=0;resizeLast=0;collapsible=1;marginBottom=0;whiteSpace=wrap;html=1;" vertex="1" parent="1">
          <mxGeometry x="-510" y="488" width="160" height="97" as="geometry" />
        </mxCell>
        <mxCell id="cIdRSMlZmeu0o8aqH7t7-12" value="&lt;span style=&quot;text-align: center;&quot; class=&quot;hljs-operator&quot;&gt;-&lt;/span&gt;&lt;span style=&quot;text-align: center;&quot;&gt;numero: string&amp;nbsp;&lt;/span&gt;&lt;span style=&quot;text-align: center;&quot; class=&quot;hljs-operator&quot;&gt;|&lt;/span&gt;&lt;br style=&quot;text-align: center;&quot;&gt;&lt;span style=&quot;text-align: center;&quot; class=&quot;hljs-operator&quot;&gt;|&lt;/span&gt;&lt;span style=&quot;text-align: center;&quot;&gt;&amp;nbsp;&lt;/span&gt;&lt;span style=&quot;text-align: center;&quot; class=&quot;hljs-operator&quot;&gt;-&lt;/span&gt;&lt;span style=&quot;text-align: center;&quot;&gt;PIN:&amp;nbsp;&lt;/span&gt;&lt;span style=&quot;text-align: center;&quot; class=&quot;hljs-type&quot;&gt;int&lt;/span&gt;" style="text;strokeColor=none;fillColor=none;align=left;verticalAlign=top;spacingLeft=4;spacingRight=4;overflow=hidden;rotatable=0;points=[[0,0.5],[1,0.5]];portConstraint=eastwest;whiteSpace=wrap;html=1;" vertex="1" parent="cIdRSMlZmeu0o8aqH7t7-11">
          <mxGeometry y="26" width="160" height="37" as="geometry" />
        </mxCell>
        <mxCell id="cIdRSMlZmeu0o8aqH7t7-13" value="" style="line;strokeWidth=1;fillColor=none;align=left;verticalAlign=middle;spacingTop=-1;spacingLeft=3;spacingRight=3;rotatable=0;labelPosition=right;points=[];portConstraint=eastwest;strokeColor=inherit;" vertex="1" parent="cIdRSMlZmeu0o8aqH7t7-11">
          <mxGeometry y="63" width="160" height="8" as="geometry" />
        </mxCell>
        <mxCell id="cIdRSMlZmeu0o8aqH7t7-14" value="&lt;span style=&quot;text-align: center;&quot; class=&quot;hljs-operator&quot;&gt;+&lt;/span&gt;&lt;span style=&quot;text-align: center;&quot;&gt;validarPIN(): bool&lt;/span&gt;" style="text;strokeColor=none;fillColor=none;align=left;verticalAlign=top;spacingLeft=4;spacingRight=4;overflow=hidden;rotatable=0;points=[[0,0.5],[1,0.5]];portConstraint=eastwest;whiteSpace=wrap;html=1;" vertex="1" parent="cIdRSMlZmeu0o8aqH7t7-11">
          <mxGeometry y="71" width="160" height="26" as="geometry" />
        </mxCell>
      </root>
    </mxGraphModel>
  </diagram>
</mxfile>
